<svg width="270" height="33" viewBox="0 0 270 33" fill="none" xmlns="http://www.w3.org/2000/svg">
<path d="M17.176 5.4681H11.8427C10.8608 5.4681 10.0649 6.26405 10.0649 7.24588V12.5792H17.176C17.3781 12.5747 17.57 12.6688 17.6901 12.8315C17.8103 12.9941 17.8441 13.205 17.7804 13.397L16.4649 17.3081C16.3436 17.667 16.0082 17.9097 15.6293 17.9125H10.0649V31.2459C10.0649 31.7367 9.66684 32.1348 9.176 32.1348H4.73155C4.24064 32.1348 3.84266 31.7367 3.84266 31.2459V17.9125H1.176C0.685083 17.9125 0.287109 17.5145 0.287109 17.0237V13.4681C0.287109 12.9773 0.685083 12.5792 1.176 12.5792H3.84266V7.24588C3.84266 3.31852 7.02649 0.134766 10.9538 0.134766H17.176C17.6668 0.134766 18.0649 0.532739 18.0649 1.02365V4.57921C18.0649 5.07013 17.6668 5.4681 17.176 5.4681Z" fill="#848484"/>
<path fill-rule="evenodd" clip-rule="evenodd" d="M91.1756 0.134766H76.9533C72.0442 0.134766 68.0645 4.11446 68.0645 9.02365V23.2459C68.0645 28.155 72.0442 32.1348 76.9533 32.1348H91.1756C96.0847 32.1348 100.064 28.155 100.064 23.2459V9.02365C100.064 4.11446 96.0847 0.134766 91.1756 0.134766ZM96.9533 23.2459C96.9436 26.4327 94.3624 29.0139 91.1756 29.0237H76.9533C73.7664 29.0139 71.1853 26.4327 71.1756 23.2459V9.02365C71.1853 5.83672 73.7664 3.25564 76.9533 3.24588H91.1756C94.3624 3.25564 96.9436 5.83672 96.9533 9.02365V23.2459ZM92.5089 9.4681C93.4908 9.4681 94.2867 8.67215 94.2867 7.69032C94.2867 6.70849 93.4908 5.91254 92.5089 5.91254C91.527 5.91254 90.7311 6.70849 90.7311 7.69032C90.7311 8.67215 91.527 9.4681 92.5089 9.4681ZM84.0645 8.13477C79.6462 8.13477 76.0645 11.7165 76.0645 16.1348C76.0645 20.5531 79.6462 24.1348 84.0645 24.1348C88.4828 24.1348 92.0645 20.5531 92.0645 16.1348C92.0693 14.0116 91.2278 11.974 89.7265 10.4727C88.2252 8.97137 86.1877 8.13004 84.0645 8.13477ZM79.1756 16.1348C79.1756 18.8349 81.3644 21.0237 84.0645 21.0237C86.7645 21.0237 88.9533 18.8349 88.9533 16.1348C88.9533 13.4347 86.7645 11.2459 84.0645 11.2459C81.3644 11.2459 79.1756 13.4347 79.1756 16.1348Z" fill="#848484"/>
<path d="M187.656 4.77248C186.685 6.06821 185.511 7.19848 184.179 8.11964C184.179 8.45811 184.179 8.79658 184.179 9.15387C184.19 15.3005 181.735 21.1944 177.364 25.5142C172.993 29.834 167.073 32.2183 160.93 32.1325C157.378 32.1445 153.872 31.3336 150.686 29.7633C150.514 29.6882 150.404 29.5184 150.404 29.3307V29.1239C150.404 28.8539 150.623 28.6351 150.893 28.6351C154.384 28.5199 157.75 27.3095 160.516 25.1751C157.356 25.1113 154.513 23.2394 153.205 20.3611C153.139 20.204 153.159 20.0235 153.259 19.8853C153.359 19.747 153.524 19.6709 153.693 19.6843C154.654 19.7807 155.624 19.6914 156.55 19.421C153.062 18.6969 150.441 15.801 150.066 12.2565C150.053 12.0865 150.129 11.9219 150.267 11.8219C150.405 11.7221 150.585 11.7014 150.743 11.7677C151.679 12.1808 152.689 12.3983 153.712 12.4069C150.656 10.4008 149.335 6.58508 150.498 3.11772C150.618 2.7808 150.907 2.53189 151.257 2.46249C151.608 2.39307 151.969 2.5134 152.209 2.77925C156.333 7.16903 162 9.7849 168.015 10.0753C167.861 9.46049 167.786 8.82866 167.79 8.19485C167.846 4.87145 169.903 1.9109 172.996 0.699204C176.09 -0.512469 179.609 0.264506 181.905 2.66641C183.471 2.36819 184.984 1.84238 186.397 1.10567C186.501 1.04104 186.632 1.04104 186.736 1.10567C186.8 1.20924 186.8 1.34057 186.736 1.44414C186.051 3.01168 184.895 4.3264 183.428 5.20498C184.712 5.056 185.974 4.75296 187.187 4.30239C187.289 4.23291 187.423 4.23291 187.525 4.30239C187.61 4.3415 187.674 4.41631 187.7 4.5069C187.725 4.59748 187.709 4.69463 187.656 4.77248Z" fill="#848484"/>
<path fill-rule="evenodd" clip-rule="evenodd" d="M241.267 0.134766H266.156C268.12 0.134766 269.712 1.72664 269.712 3.69032V28.5792C269.712 30.5429 268.12 32.1348 266.156 32.1348H241.267C239.304 32.1348 237.712 30.5429 237.712 28.5792V3.69032C237.712 1.72664 239.304 0.134766 241.267 0.134766ZM246.601 26.8014C247.092 26.8014 247.49 26.4034 247.49 25.9125V13.4681C247.49 12.9773 247.092 12.5792 246.601 12.5792H243.934C243.443 12.5792 243.045 12.9773 243.045 13.4681V25.9125C243.045 26.4034 243.443 26.8014 243.934 26.8014H246.601ZM245.267 10.8014C243.795 10.8014 242.601 9.60753 242.601 8.13477C242.601 6.662 243.795 5.4681 245.267 5.4681C246.74 5.4681 247.934 6.662 247.934 8.13477C247.934 9.60753 246.74 10.8014 245.267 10.8014ZM263.49 26.8014C263.981 26.8014 264.379 26.4034 264.379 25.9125V17.7348C264.436 14.9095 262.348 12.4984 259.543 12.1525C257.582 11.9734 255.682 12.8893 254.601 14.5348V13.4681C254.601 12.9773 254.203 12.5792 253.712 12.5792H251.045C250.554 12.5792 250.156 12.9773 250.156 13.4681V25.9125C250.156 26.4034 250.554 26.8014 251.045 26.8014H253.712C254.203 26.8014 254.601 26.4034 254.601 25.9125V19.2459C254.601 17.7732 255.795 16.5792 257.267 16.5792C258.74 16.5792 259.934 17.7732 259.934 19.2459V25.9125C259.934 26.4034 260.332 26.8014 260.823 26.8014H263.49Z" fill="#848484"/>
</svg>
