<svg width="248" height="18" viewBox="0 0 248 18" fill="none" xmlns="http://www.w3.org/2000/svg">
<path d="M9.82694 3.48138H6.96177C6.4343 3.48138 6.00672 3.90898 6.00672 4.43644V7.30161H9.82694C9.93553 7.2992 10.0386 7.34974 10.1031 7.43713C10.1677 7.52452 10.1859 7.63779 10.1517 7.74093L9.44492 9.84206C9.37978 10.0349 9.19956 10.1652 8.99604 10.1668H6.00672V17.3297C6.00672 17.5934 5.79288 17.8072 5.52919 17.8072H3.14155C2.87782 17.8072 2.66402 17.5934 2.66402 17.3297V10.1668H1.23143C0.967705 10.1668 0.753906 9.95294 0.753906 9.68925V7.77913C0.753906 7.51544 0.967705 7.30161 1.23143 7.30161H2.66402V4.43644C2.66402 2.32658 4.37443 0.616211 6.48424 0.616211H9.82694C10.0906 0.616211 10.3045 0.83001 10.3045 1.09374V3.00385C10.3045 3.26758 10.0906 3.48138 9.82694 3.48138Z" fill="#848484"/>
<path fill-rule="evenodd" clip-rule="evenodd" d="M84.7204 0.616211H77.08C74.4427 0.616211 72.3047 2.75418 72.3047 5.39149V13.0319C72.3047 15.6692 74.4427 17.8072 77.08 17.8072H84.7204C87.3577 17.8072 89.4957 15.6692 89.4957 13.0319V5.39149C89.4957 2.75418 87.3577 0.616211 84.7204 0.616211ZM87.8244 13.0319C87.8191 14.744 86.4325 16.1306 84.7204 16.1359H77.08C75.3679 16.1306 73.9813 14.744 73.976 13.0319V5.39149C73.9813 3.67941 75.3679 2.2928 77.08 2.28756H84.7204C86.4325 2.2928 87.8191 3.67941 87.8244 5.39149V13.0319ZM85.4367 5.63026C85.9642 5.63026 86.3918 5.20266 86.3918 4.6752C86.3918 4.14774 85.9642 3.72014 85.4367 3.72014C84.9092 3.72014 84.4817 4.14774 84.4817 4.6752C84.4817 5.20266 84.9092 5.63026 85.4367 5.63026ZM80.9002 4.91396C78.5266 4.91396 76.6024 6.83814 76.6024 9.21172C76.6024 11.5853 78.5266 13.5095 80.9002 13.5095C83.2738 13.5095 85.1979 11.5853 85.1979 9.21172C85.2005 8.07109 84.7485 6.97648 83.942 6.16994C83.1354 5.3634 82.0408 4.91142 80.9002 4.91396ZM78.2738 9.21172C78.2738 10.6623 79.4497 11.8381 80.9002 11.8381C82.3507 11.8381 83.5266 10.6623 83.5266 9.21172C83.5266 7.76118 82.3507 6.58531 80.9002 6.58531C79.4497 6.58531 78.2738 7.76118 78.2738 9.21172Z" fill="#848484"/>
<path d="M168.661 4.02326C168.217 4.61494 167.681 5.13106 167.073 5.5517C167.073 5.70625 167.073 5.86081 167.073 6.02396C167.078 8.83073 165.957 11.5221 163.961 13.4947C161.965 15.4672 159.262 16.556 156.457 16.5168C154.835 16.5223 153.234 16.152 151.779 15.4349C151.701 15.4007 151.65 15.3231 151.65 15.2374V15.143C151.65 15.0197 151.75 14.9198 151.873 14.9198C153.468 14.8672 155.005 14.3145 156.268 13.3398C154.825 13.3107 153.527 12.4559 152.929 11.1416C152.899 11.0699 152.908 10.9874 152.954 10.9243C152.999 10.8612 153.075 10.8264 153.152 10.8325C153.591 10.8766 154.034 10.8358 154.457 10.7123C152.864 10.3816 151.667 9.05927 151.496 7.44074C151.49 7.36309 151.525 7.28793 151.588 7.24228C151.651 7.19672 151.733 7.18727 151.805 7.21754C152.232 7.40617 152.694 7.50549 153.161 7.50941C151.765 6.59338 151.162 4.85096 151.693 3.26764C151.748 3.11379 151.88 3.00013 152.04 2.96844C152.2 2.93674 152.365 2.99169 152.474 3.11308C154.358 5.11761 156.946 6.31211 159.692 6.4447C159.622 6.16397 159.587 5.87546 159.589 5.58604C159.615 4.06845 160.554 2.71656 161.967 2.16326C163.379 1.60997 164.986 1.96476 166.035 3.06156C166.75 2.92538 167.441 2.68528 168.086 2.34887C168.133 2.31935 168.193 2.31935 168.24 2.34887C168.27 2.39616 168.27 2.45613 168.24 2.50342C167.928 3.21922 167.4 3.81957 166.73 4.22076C167.317 4.15273 167.893 4.01435 168.446 3.8086C168.493 3.77688 168.554 3.77688 168.601 3.8086C168.64 3.82646 168.669 3.86062 168.681 3.90199C168.692 3.94335 168.685 3.98771 168.661 4.02326Z" fill="#848484"/>
<path fill-rule="evenodd" clip-rule="evenodd" d="M232.597 0.616211H245.967C247.022 0.616211 247.878 1.4714 247.878 2.52632V15.8971C247.878 16.9521 247.022 17.8072 245.967 17.8072H232.597C231.542 17.8072 230.687 16.9521 230.687 15.8971V2.52632C230.687 1.4714 231.542 0.616211 232.597 0.616211ZM235.462 14.9421C235.726 14.9421 235.939 14.7282 235.939 14.4645V7.77913C235.939 7.51544 235.726 7.30161 235.462 7.30161H234.029C233.765 7.30161 233.552 7.51544 233.552 7.77913V14.4645C233.552 14.7282 233.765 14.9421 234.029 14.9421H235.462ZM234.746 6.34655C233.954 6.34655 233.313 5.70516 233.313 4.91396C233.313 4.12277 233.954 3.48138 234.746 3.48138C235.537 3.48138 236.178 4.12277 236.178 4.91396C236.178 5.70516 235.537 6.34655 234.746 6.34655ZM244.535 14.9421C244.799 14.9421 245.012 14.7282 245.012 14.4645V10.0713C245.043 8.55349 243.921 7.25817 242.415 7.07239C241.361 6.97617 240.341 7.46817 239.76 8.35217V7.77913C239.76 7.51544 239.546 7.30161 239.282 7.30161H237.849C237.586 7.30161 237.372 7.51544 237.372 7.77913V14.4645C237.372 14.7282 237.586 14.9421 237.849 14.9421H239.282C239.546 14.9421 239.76 14.7282 239.76 14.4645V10.8831C239.76 10.0919 240.401 9.45048 241.192 9.45048C241.983 9.45048 242.625 10.0919 242.625 10.8831V14.4645C242.625 14.7282 242.839 14.9421 243.102 14.9421H244.535Z" fill="#848484"/>
</svg>
