<svg width="67" height="56" viewBox="0 0 67 56" fill="none" xmlns="http://www.w3.org/2000/svg">
<path d="M21.2369 55.9212V44.6142H0.250977L13.939 24.9287H7.08634L24.4811 0.502197L33.5024 13.1703L42.5237 0.502197L59.9184 24.9287H53.1409L66.7538 44.6142H45.814V55.9212H39.2795V44.6142H27.7714V55.9212H21.2369ZM46.398 41.24H60.1903L46.5312 21.5544H53.0485L42.5237 6.75317L35.7866 16.3043L41.8758 24.9287H35.0983L46.398 41.24ZM6.86066 41.24H42.1477L28.4886 21.5544H35.0059L24.4811 6.75317L13.9562 21.5544H20.5198L6.86066 41.24ZM6.86066 41.24H20.5198H13.9562H35.0059H28.4886H42.1477H6.86066ZM46.398 41.24H35.0983H41.8758H35.7866H53.0485H46.5312H60.1903H46.398Z" fill="#323232"/>
</svg>
