<svg width="48" height="40" viewBox="0 0 48 40" fill="none" xmlns="http://www.w3.org/2000/svg">
<path d="M15.1471 40V31.8389H0L9.87966 17.6305H4.93359L17.4887 0L24 9.14351L30.5113 0L43.0664 17.6305H38.1746L48 31.8389H32.8862V40H28.1698V31.8389H19.8636V40H15.1471ZM33.3078 29.4035H43.2627L33.4038 15.195H38.1079L30.5113 4.51179L25.6487 11.4056L30.0437 17.6305H25.1519L33.3078 29.4035ZM4.7707 29.4035H30.24L20.3812 15.195H25.0852L17.4887 4.51179L9.89209 15.195H14.6295L4.7707 29.4035ZM4.7707 29.4035H14.6295H9.89209H25.0852H20.3812H30.24H4.7707ZM33.3078 29.4035H25.1519H30.0437H25.6487H38.1079H33.4038H43.2627H33.3078Z" fill="#323232"/>
</svg>
